<svg width="32" height="32" viewBox="0 0 508.07 398.17" xmlns="http://www.w3.org/2000/svg">
<defs>
<linearGradient id="sol-a" x1="463" y1="205.16" x2="182.39" y2="742.62" gradientTransform="translate(0 -198)" gradientUnits="userSpaceOnUse">
<stop offset="0" stop-color="#00ffa3"/><stop offset="1" stop-color="#dc1fff"/>
</linearGradient>
<linearGradient id="sol-b" x1="340.31" y1="141.1" x2="59.71" y2="678.57" gradientTransform="translate(0 -198)" gradientUnits="userSpaceOnUse">
<stop offset="0" stop-color="#00ffa3"/><stop offset="1" stop-color="#dc1fff"/>
</linearGradient>
<linearGradient id="sol-c" x1="401.26" y1="172.92" x2="120.66" y2="710.39" gradientTransform="translate(0 -198)" gradientUnits="userSpaceOnUse">
<stop offset="0" stop-color="#00ffa3"/><stop offset="1" stop-color="#dc1fff"/>
</linearGradient>
</defs>
<path fill="url(#sol-a)" d="M82.55 303.89A16.63 16.63 0 0194.3 299h405.45a8.3 8.3 0 015.87 14.18l-80.09 80.09a16.61 16.61 0 01-11.75 4.86H8.33a8.31 8.31 0 01-5.88-14.18z"/>
<path fill="url(#sol-b)" d="M82.55 4.85A17.08 17.08 0 0194.3 0h405.45a8.3 8.3 0 015.87 14.18l-80.09 80.09a16.61 16.61 0 01-11.75 4.86H8.33A8.31 8.31 0 012.45 85z"/>
<path fill="url(#sol-c)" d="M425.53 153.42a16.61 16.61 0 00-11.75-4.86H8.33a8.31 8.31 0 00-5.88 14.18l80.1 80.09a16.6 16.6 0 0011.75 4.86h405.45a8.3 8.3 0 005.87-14.18z"/>
</svg>