<svg xmlns="http://www.w3.org/2000/svg" viewBox="0 0 339.43 295.27" fill="currentColor">
  <path d="M62.15 1.45l-61.89 130a2.52 2.52 0 00.54 2.94l167.15 160.17a2.55 2.55 0 003.53 0L338.63 134.4a2.52 2.52 0 00.54-2.94l-61.89-130A2.5 2.5 0 00275 0H64.45a2.5 2.5 0 00-2.3 1.45z"/>
  <path fill="white" d="M191.19 205.4c-1.7 0-3.39-.65-4.69-1.95l-45.47-45.47-45.47 45.47a6.62 6.62 0 01-9.37-9.37l50.16-50.16a6.62 6.62 0 019.37 0l50.16 50.16a6.62 6.62 0 01-4.69 11.32z"/>
  <path fill="white" d="M186.5 161.08a6.62 6.62 0 01-6.63-6.63V93.1a6.63 6.63 0 0113.25 0v61.35a6.62 6.62 0 01-6.63 6.63zM141.03 161.08a6.62 6.62 0 01-6.63-6.63V93.1a6.63 6.63 0 0113.25 0v61.35a6.62 6.62 0 01-6.62 6.63z"/>
</svg>
